# xmcd CD database file
#
# Track frame offsets:
#	150
#	13918
#	28530
#	43396
#	58603
#	73134
#	87793
#	113114
#	136843
#	167431
#	190670
#	219286
#	247228
#	268020
#	302174
#	338781
#
# Disc length: 4696 seconds
#
# Revision: 0
# Processed by: cddbd v1.5.2PL0 Copyright (c) Steve Scherf et al.
# Submitted via: CDex 1.70beta2
#
DISCID=e5125610
DTITLE=Coleman Hawkins - Jazz Roads CD136 - Swing - Coleman Hawkins Vol.7 (1949-54)
DYEAR=2006
DGENRE=Jazz
TTITLE0=Coleman Hawkins And His Orchestra - It's Only A Papermoon
TTITLE1=Coleman Hawkins And His Orchestra - Sih-Sah
TTITLE2=Coleman Hawkins And His Orchestra - Bean's Talking Again
TTITLE3=Coleman Hawkins And His Orchestra - Bah-U-Bah
TTITLE4=Coleman Hawkins And His Orchestra - I Surrender Dear
TTITLE5=Coleman Hawkins And His Orchestra - Sophisticated Lady
TTITLE6=Coleman Hawkins And His All+Stars - Get Happy
TTITLE7=Coleman Hawkins And His All+Stars - Lullaby Of Birdland
TTITLE8=Coleman Hawkins And His All+Stars - Out Of Nowhere
TTITLE9=Coleman Hawkins And His All+Stars - Blue Lou
TTITLE10=Coleman Hawkins And His All+Stars - Stompin' At The Savoy
TTITLE11=Coleman Hawkins And His All+Stars - Just You, Just Me
TTITLE12=Coleman Hawkins And His All+Stars - If I Had You
TTITLE13=Coleman Hawkins And His All+Stars - Ain't Misbehavin'
TTITLE14=Coleman Hawkins And His All+Stars - Cheek To Cheek
TTITLE15=Coleman Hawkins And His All+Stars - Honeysuckle Rose
EXTD=YEAR: 2006
EXTT0=
EXTT1=
EXTT2=
EXTT3=
EXTT4=
EXTT5=
EXTT6=
EXTT7=
EXTT8=
EXTT9=
EXTT10=
EXTT11=
EXTT12=
EXTT13=
EXTT14=
EXTT15=
PLAYORDER=
